<svg xmlns="http://www.w3.org/2000/svg" width="91.44mm" height="128.5mm" viewBox="0 0 91.44 128.5" version="1.1">
<defs>
<linearGradient id="bg" x1="0" y1="0" x2="0" y2="1"><stop offset="0" stop-color="#0e0e11"/><stop offset="0.55" stop-color="#0a0a0c"/><stop offset="1" stop-color="#070708"/></linearGradient>
<linearGradient id="rail" x1="0" y1="0" x2="1" y2="0"><stop offset="0" stop-color="#1a0800"/><stop offset="0.22" stop-color="#e8612a"/><stop offset="0.5" stop-color="#d4a017"/><stop offset="0.78" stop-color="#e8612a"/><stop offset="1" stop-color="#1a0800"/></linearGradient>
<radialGradient id="metal" cx="0.38" cy="0.32" r="0.75"><stop offset="0" stop-color="#34343a"/><stop offset="0.5" stop-color="#202024"/><stop offset="1" stop-color="#0e0e10"/></radialGradient>
<radialGradient id="metalHero" cx="0.38" cy="0.30" r="0.78"><stop offset="0" stop-color="#3c3c44"/><stop offset="0.45" stop-color="#242429"/><stop offset="1" stop-color="#0d0d0f"/></radialGradient>
<radialGradient id="jack" cx="0.4" cy="0.35" r="0.7"><stop offset="0" stop-color="#26262a"/><stop offset="0.6" stop-color="#141417"/><stop offset="1" stop-color="#050506"/></radialGradient>
<radialGradient id="screen" cx="0.5" cy="0.4" r="0.85"><stop offset="0" stop-color="#0b0d0c"/><stop offset="1" stop-color="#040504"/></radialGradient>
<linearGradient id="dispStroke" x1="0" y1="0" x2="1" y2="0"><stop offset="0" stop-color="#e8612a" stop-opacity="0.3"/><stop offset="0.5" stop-color="#d4a017" stop-opacity="0.45"/><stop offset="1" stop-color="#e8612a" stop-opacity="0.3"/></linearGradient>
</defs>
<rect x="0" y="0" width="91.44" height="128.5" fill="url(#bg)"/>
<ellipse cx="45.72" cy="58" rx="38" ry="62" fill="#e8612a" opacity="0.02"/>
<rect x="0" y="0" width="91.44" height="0.7" fill="url(#rail)"/>
<rect x="0" y="127.80" width="91.44" height="0.7" fill="url(#rail)"/>
<rect x="0.2" y="0.2" width="91.04" height="128.10" rx="0.8" fill="none" stroke="#202024" stroke-width="0.35"/>
<circle cx="4.60" cy="4.60" r="1.9" fill="#161618" stroke="#2c2c30" stroke-width="0.25"/>
<path d="M 3.50 3.50 L 5.70 5.70" stroke="#0a0a0b" stroke-width="0.35"/>
<circle cx="4.60" cy="4.60" r="1.9" fill="none" stroke="#e8612a" stroke-width="0.18" opacity="0.25"/>
<circle cx="86.84" cy="4.60" r="1.9" fill="#161618" stroke="#2c2c30" stroke-width="0.25"/>
<path d="M 85.74 3.50 L 87.94 5.70" stroke="#0a0a0b" stroke-width="0.35"/>
<circle cx="86.84" cy="4.60" r="1.9" fill="none" stroke="#e8612a" stroke-width="0.18" opacity="0.25"/>
<circle cx="4.60" cy="123.90" r="1.9" fill="#161618" stroke="#2c2c30" stroke-width="0.25"/>
<path d="M 3.50 122.80 L 5.70 125.00" stroke="#0a0a0b" stroke-width="0.35"/>
<circle cx="4.60" cy="123.90" r="1.9" fill="none" stroke="#e8612a" stroke-width="0.18" opacity="0.25"/>
<circle cx="86.84" cy="123.90" r="1.9" fill="#161618" stroke="#2c2c30" stroke-width="0.25"/>
<path d="M 85.74 122.80 L 87.94 125.00" stroke="#0a0a0b" stroke-width="0.35"/>
<circle cx="86.84" cy="123.90" r="1.9" fill="none" stroke="#e8612a" stroke-width="0.18" opacity="0.25"/>
<path d="M169.0 1493H1104.0V1202H516.0V924H1069.0V633H516.0V0H169.0ZM2838.4444444444443 1241Q2680.4444444444443 1241 2592.9444444444443 1111.0Q2505.4444444444443 981 2505.4444444444443 745Q2505.4444444444443 510 2592.9444444444443 380.0Q2680.4444444444443 250 2838.4444444444443 250Q2997.4444444444443 250 3084.9444444444443 380.0Q3172.4444444444443 510 3172.4444444444443 745Q3172.4444444444443 981 3084.9444444444443 1111.0Q2997.4444444444443 1241 2838.4444444444443 1241ZM2838.4444444444443 1520Q3162.4444444444443 1520 3345.9444444444443 1314.0Q3529.4444444444443 1108 3529.4444444444443 745Q3529.4444444444443 383 3345.9444444444443 177.0Q3162.4444444444443 -29 2838.4444444444443 -29Q2515.4444444444443 -29 2331.4444444444443 177.0Q2147.4444444444443 383 2147.4444444444443 745Q2147.4444444444443 1108 2331.4444444444443 1314.0Q2515.4444444444443 1520 2838.4444444444443 1520ZM5079.888888888889 831Q5187.888888888889 831 5235.388888888889 876.0Q5282.888888888889 921 5282.888888888889 1024Q5282.888888888889 1126 5235.388888888889 1170.0Q5187.888888888889 1214 5079.888888888889 1214H4933.888888888889V831ZM4933.888888888889 565V0H4586.888888888889V1493H5115.888888888889Q5381.888888888889 1493 5505.388888888889 1394.0Q5628.888888888889 1295 5628.888888888889 1081Q5628.888888888889 933 5564.888888888889 838.0Q5500.888888888889 743 5370.888888888889 698Q5441.888888888889 680 5498.388888888889 616.5Q5554.888888888889 553 5611.888888888889 424L5799.888888888889 0H5430.888888888889L5267.888888888889 371Q5217.888888888889 483 5166.888888888889 524.0Q5115.888888888889 565 5031.888888888889 565ZM8010.333333333333 111Q7880.333333333333 41 7740.833333333333 6.0Q7601.333333333333 -29 7453.333333333333 -29Q7117.333333333333 -29 6921.333333333333 179.5Q6725.333333333333 388 6725.333333333333 745Q6725.333333333333 1106 6924.833333333333 1313.0Q7124.333333333333 1520 7472.333333333333 1520Q7606.333333333333 1520 7729.333333333333 1492.0Q7852.333333333333 1464 7961.333333333333 1409V1100Q7848.333333333333 1171 7737.333333333333 1206.0Q7626.333333333333 1241 7514.333333333333 1241Q7307.333333333333 1241 7195.333333333333 1112.5Q7083.333333333333 984 7083.333333333333 745Q7083.333333333333 508 7191.333333333333 379.0Q7299.333333333333 250 7498.333333333333 250Q7552.333333333333 250 7598.833333333333 257.5Q7645.333333333333 265 7681.333333333333 281V571H7470.333333333333V829H8010.333333333333ZM9110.777777777777 1493H10045.777777777777V1202H9457.777777777777V924H10010.777777777777V633H9457.777777777777V291H10065.777777777777V0H9110.777777777777Z" fill="#e8612a" transform="translate(9.500,7.600) scale(0.001758,-0.001758)"/>
<path d="M985.0 272H443.0L357.0 0H9.0L507.0 1493H920.0L1418.0 0H1069.0ZM529.0 549H897.0L714.0 1143ZM2391.4444444444443 1493H2738.4444444444443V598Q2738.4444444444443 413 2792.9444444444443 333.5Q2847.4444444444443 254 2970.4444444444443 254Q3094.4444444444443 254 3148.9444444444443 333.5Q3203.4444444444443 413 3203.4444444444443 598V1493H3550.4444444444443V598Q3550.4444444444443 281 3406.9444444444443 126.0Q3263.4444444444443 -29 2970.4444444444443 -29Q2677.4444444444443 -29 2534.4444444444443 126.0Q2391.4444444444443 281 2391.4444444444443 598ZM5030.888888888889 1202V291H5154.888888888889Q5366.888888888889 291 5478.888888888889 408.0Q5590.888888888889 525 5590.888888888889 748Q5590.888888888889 970 5479.388888888889 1086.0Q5367.888888888889 1202 5154.888888888889 1202ZM4683.888888888889 1493H5049.888888888889Q5355.888888888889 1493 5505.388888888889 1444.5Q5654.888888888889 1396 5761.888888888889 1280Q5856.888888888889 1179 5902.888888888889 1047.0Q5948.888888888889 915 5948.888888888889 748Q5948.888888888889 579 5902.888888888889 446.5Q5856.888888888889 314 5761.888888888889 213Q5653.888888888889 97 5502.888888888889 48.5Q5351.888888888889 0 5049.888888888889 0H4683.888888888889ZM7010.333333333333 1493H7357.333333333333V0H7010.333333333333ZM9105.777777777777 1241Q8947.777777777777 1241 8860.277777777777 1111.0Q8772.777777777777 981 8772.777777777777 745Q8772.777777777777 510 8860.277777777777 380.0Q8947.777777777777 250 9105.777777777777 250Q9264.777777777777 250 9352.277777777777 380.0Q9439.777777777777 510 9439.777777777777 745Q9439.777777777777 981 9352.277777777777 1111.0Q9264.777777777777 1241 9105.777777777777 1241ZM9105.777777777777 1520Q9429.777777777777 1520 9613.277777777777 1314.0Q9796.777777777777 1108 9796.777777777777 745Q9796.777777777777 383 9613.277777777777 177.0Q9429.777777777777 -29 9105.777777777777 -29Q8782.777777777777 -29 8598.777777777777 177.0Q8414.777777777777 383 8414.777777777777 745Q8414.777777777777 1108 8598.777777777777 1314.0Q8782.777777777777 1520 9105.777777777777 1520Z" fill="#e8612a" transform="translate(64.557,7.600) scale(0.001758,-0.001758)"/>
<circle cx="45.72" cy="6.30" r="4.6" fill="none" stroke="#d4a017" stroke-width="0.2" opacity="0.05"/>
<circle cx="45.72" cy="6.30" r="3.5" fill="none" stroke="#e8612a" stroke-width="0.3" opacity="0.08"/>
<circle cx="45.72" cy="6.30" r="2.5" fill="none" stroke="#e8612a" stroke-width="0.4" opacity="0.14"/>
<polygon points="45.72,3.90 47.72,6.30 45.72,8.70 43.72,6.30" fill="none" stroke="#e8612a" stroke-width="0.3" opacity="0.7"/>
<circle cx="45.72" cy="6.30" r="0.7" fill="#ff8a4c" opacity="0.9"/>
<path d="M985.0 272H443.0L357.0 0H9.0L507.0 1493H920.0L1418.0 0H1069.0ZM529.0 549H897.0L714.0 1143ZM2712.090909090909 1493H3099.090909090909L3588.090909090909 469V1493H3916.090909090909V0H3529.090909090909L3041.090909090909 1024V0H2712.090909090909ZM6187.181818181818 272H5645.181818181818L5559.181818181818 0H5211.181818181818L5709.181818181818 1493H6122.181818181818L6620.181818181818 0H6271.181818181818ZM5731.181818181818 549H6099.181818181818L5916.181818181818 1143ZM7914.272727272727 1493H8261.272727272728V291H8869.272727272728V0H7914.272727272727ZM10819.363636363636 1241Q10661.363636363636 1241 10573.863636363636 1111.0Q10486.363636363636 981 10486.363636363636 745Q10486.363636363636 510 10573.863636363636 380.0Q10661.363636363636 250 10819.363636363636 250Q10978.363636363636 250 11065.863636363636 380.0Q11153.363636363636 510 11153.363636363636 745Q11153.363636363636 981 11065.863636363636 1111.0Q10978.363636363636 1241 10819.363636363636 1241ZM10819.363636363636 1520Q11143.363636363636 1520 11326.863636363636 1314.0Q11510.363636363636 1108 11510.363636363636 745Q11510.363636363636 383 11326.863636363636 177.0Q11143.363636363636 -29 10819.363636363636 -29Q10496.363636363636 -29 10312.363636363636 177.0Q10128.363636363636 383 10128.363636363636 745Q10128.363636363636 1108 10312.363636363636 1314.0Q10496.363636363636 1520 10819.363636363636 1520ZM14096.454545454544 111Q13966.454545454544 41 13826.954545454544 6.0Q13687.454545454544 -29 13539.454545454544 -29Q13203.454545454544 -29 13007.454545454544 179.5Q12811.454545454544 388 12811.454545454544 745Q12811.454545454544 1106 13010.954545454544 1313.0Q13210.454545454544 1520 13558.454545454544 1520Q13692.454545454544 1520 13815.454545454544 1492.0Q13938.454545454544 1464 14047.454545454544 1409V1100Q13934.454545454544 1171 13823.454545454544 1206.0Q13712.454545454544 1241 13600.454545454544 1241Q13393.454545454544 1241 13281.454545454544 1112.5Q13169.454545454544 984 13169.454545454544 745Q13169.454545454544 508 13277.454545454544 379.0Q13385.454545454544 250 13584.454545454544 250Q13638.454545454544 250 13684.954545454544 257.5Q13731.454545454544 265 13767.454545454544 281V571H13556.454545454544V829H14096.454545454544ZM17275.63636363636 1493H17622.63636363636V291H18230.63636363636V0H17275.63636363636ZM19566.72727272727 1493H20501.72727272727V1202H19913.72727272727V924H20466.72727272727V633H19913.72727272727V0H19566.72727272727ZM22556.818181818177 1241Q22398.818181818177 1241 22311.318181818177 1111.0Q22223.818181818177 981 22223.818181818177 745Q22223.818181818177 510 22311.318181818177 380.0Q22398.818181818177 250 22556.818181818177 250Q22715.818181818177 250 22803.318181818177 380.0Q22890.818181818177 510 22890.818181818177 745Q22890.818181818177 981 22803.318181818177 1111.0Q22715.818181818177 1241 22556.818181818177 1241ZM22556.818181818177 1520Q22880.818181818177 1520 23064.318181818177 1314.0Q23247.818181818177 1108 23247.818181818177 745Q23247.818181818177 383 23064.318181818177 177.0Q22880.818181818177 -29 22556.818181818177 -29Q22233.818181818177 -29 22049.818181818177 177.0Q21865.818181818177 383 21865.818181818177 745Q21865.818181818177 1108 22049.818181818177 1314.0Q22233.818181818177 1520 22556.818181818177 1520Z" fill="#ece8e2" transform="translate(20.648,14.600) scale(0.002148,-0.002148)"/>
<path d="M 18 16.6 L 73.44 16.6" stroke="#e8612a" stroke-width="0.18" opacity="0.3"/>
<rect x="4.10" y="18.10" width="83.24" height="27.80" rx="1.6" fill="#141416" stroke="#2a2a2e" stroke-width="0.3"/>
<rect x="5.00" y="19.00" width="81.44" height="26.00" rx="1.0" fill="url(#screen)" stroke="url(#dispStroke)" stroke-width="0.4"/>
<path d="M 7.00 32.00 L 84.44 32.00" stroke="#8f8a82" stroke-width="0.1" opacity="0.18" stroke-dasharray="0.8 1.2"/>
<polyline points="8.00,32.00 8.63,31.56 9.26,31.13 9.89,30.70 10.51,30.27 11.14,29.85 11.77,29.43 12.40,29.02 13.03,28.62 13.66,28.22 14.29,27.84 14.92,27.47 15.54,27.11 16.17,26.76 16.80,26.43 17.43,26.12 18.06,25.82 18.69,25.53 19.32,25.27 19.94,25.02 20.57,24.79 21.20,24.59 21.83,24.40 22.46,24.23 23.09,24.09 23.72,23.96 24.35,23.86 24.97,23.78 25.60,23.73 26.23,23.69 26.86,23.68 27.49,23.69 28.12,23.73 28.75,23.78 29.37,23.86 30.00,23.96 30.63,24.09 31.26,24.23 31.89,24.40 32.52,24.59 33.15,24.79 33.78,25.02 34.40,25.27 35.03,25.53 35.66,25.82 36.29,26.12 36.92,26.43 37.55,26.76 38.18,27.11 38.80,27.47 39.43,27.84 40.06,28.22 40.69,28.62 41.32,29.02 41.95,29.43 42.58,29.85 43.21,30.27 43.83,30.70 44.46,31.13 45.09,31.56 45.72,32.00 46.35,32.44 46.98,32.87 47.61,33.30 48.23,33.73 48.86,34.15 49.49,34.57 50.12,34.98 50.75,35.38 51.38,35.78 52.01,36.16 52.64,36.53 53.26,36.89 53.89,37.24 54.52,37.57 55.15,37.88 55.78,38.18 56.41,38.47 57.04,38.73 57.66,38.98 58.29,39.21 58.92,39.41 59.55,39.60 60.18,39.77 60.81,39.91 61.44,40.04 62.07,40.14 62.69,40.22 63.32,40.27 63.95,40.31 64.58,40.32 65.21,40.31 65.84,40.27 66.47,40.22 67.09,40.14 67.72,40.04 68.35,39.91 68.98,39.77 69.61,39.60 70.24,39.41 70.87,39.21 71.50,38.98 72.12,38.73 72.75,38.47 73.38,38.18 74.01,37.88 74.64,37.57 75.27,37.24 75.90,36.89 76.52,36.53 77.15,36.16 77.78,35.78 78.41,35.38 79.04,34.98 79.67,34.57 80.30,34.15 80.93,33.73 81.55,33.30 82.18,32.87 82.81,32.44 83.44,32.00" fill="none" stroke="#e8612a" stroke-width="0.9" opacity="0.12" stroke-linecap="round"/>
<polyline points="8.00,32.00 8.63,31.56 9.26,31.13 9.89,30.70 10.51,30.27 11.14,29.85 11.77,29.43 12.40,29.02 13.03,28.62 13.66,28.22 14.29,27.84 14.92,27.47 15.54,27.11 16.17,26.76 16.80,26.43 17.43,26.12 18.06,25.82 18.69,25.53 19.32,25.27 19.94,25.02 20.57,24.79 21.20,24.59 21.83,24.40 22.46,24.23 23.09,24.09 23.72,23.96 24.35,23.86 24.97,23.78 25.60,23.73 26.23,23.69 26.86,23.68 27.49,23.69 28.12,23.73 28.75,23.78 29.37,23.86 30.00,23.96 30.63,24.09 31.26,24.23 31.89,24.40 32.52,24.59 33.15,24.79 33.78,25.02 34.40,25.27 35.03,25.53 35.66,25.82 36.29,26.12 36.92,26.43 37.55,26.76 38.18,27.11 38.80,27.47 39.43,27.84 40.06,28.22 40.69,28.62 41.32,29.02 41.95,29.43 42.58,29.85 43.21,30.27 43.83,30.70 44.46,31.13 45.09,31.56 45.72,32.00 46.35,32.44 46.98,32.87 47.61,33.30 48.23,33.73 48.86,34.15 49.49,34.57 50.12,34.98 50.75,35.38 51.38,35.78 52.01,36.16 52.64,36.53 53.26,36.89 53.89,37.24 54.52,37.57 55.15,37.88 55.78,38.18 56.41,38.47 57.04,38.73 57.66,38.98 58.29,39.21 58.92,39.41 59.55,39.60 60.18,39.77 60.81,39.91 61.44,40.04 62.07,40.14 62.69,40.22 63.32,40.27 63.95,40.31 64.58,40.32 65.21,40.31 65.84,40.27 66.47,40.22 67.09,40.14 67.72,40.04 68.35,39.91 68.98,39.77 69.61,39.60 70.24,39.41 70.87,39.21 71.50,38.98 72.12,38.73 72.75,38.47 73.38,38.18 74.01,37.88 74.64,37.57 75.27,37.24 75.90,36.89 76.52,36.53 77.15,36.16 77.78,35.78 78.41,35.38 79.04,34.98 79.67,34.57 80.30,34.15 80.93,33.73 81.55,33.30 82.18,32.87 82.81,32.44 83.44,32.00" fill="none" stroke="#ff8a4c" stroke-width="0.4" opacity="0.85" stroke-linecap="round"/>
<path d="M 6.50 22.00 L 6.50 20.50 L 8.00 20.50" stroke="#e8612a" stroke-width="0.15" opacity="0.4" fill="none"/>
<path d="M 84.94 22.00 L 84.94 20.50 L 83.44 20.50" stroke="#e8612a" stroke-width="0.15" opacity="0.4" fill="none"/>
<path d="M 6.50 42.00 L 6.50 43.50 L 8.00 43.50" stroke="#e8612a" stroke-width="0.15" opacity="0.4" fill="none"/>
<path d="M 84.94 42.00 L 84.94 43.50 L 83.44 43.50" stroke="#e8612a" stroke-width="0.15" opacity="0.4" fill="none"/>
<circle cx="45.72" cy="61.0" r="17.5" fill="none" stroke="#e8612a" stroke-width="0.18" opacity="0.10" stroke-dasharray="0.6 1.4"/>
<circle cx="45.72" cy="61.0" r="20.5" fill="none" stroke="#d4a017" stroke-width="0.15" opacity="0.06"/>
<circle cx="36.97" cy="76.16" r="0.5" fill="#e8612a" opacity="0.3"/>
<circle cx="36.97" cy="45.84" r="0.5" fill="#e8612a" opacity="0.3"/>
<circle cx="63.22" cy="61.00" r="0.5" fill="#e8612a" opacity="0.3"/>
<path d="M 37.23 69.49 L 36.60 70.12" stroke="#e8612a" stroke-width="0.3" opacity="0.8"/>
<path d="M 34.31 64.71 L 33.45 64.99" stroke="#8f8a82" stroke-width="0.18" opacity="0.35"/>
<path d="M 33.87 59.12 L 32.98 58.98" stroke="#8f8a82" stroke-width="0.18" opacity="0.35"/>
<path d="M 36.01 53.95 L 35.28 53.42" stroke="#8f8a82" stroke-width="0.18" opacity="0.35"/>
<path d="M 40.27 50.31 L 39.86 49.51" stroke="#8f8a82" stroke-width="0.18" opacity="0.35"/>
<path d="M 45.72 49.00 L 45.72 48.10" stroke="#8f8a82" stroke-width="0.18" opacity="0.35"/>
<path d="M 51.17 50.31 L 51.58 49.51" stroke="#8f8a82" stroke-width="0.18" opacity="0.35"/>
<path d="M 55.43 53.95 L 56.16 53.42" stroke="#8f8a82" stroke-width="0.18" opacity="0.35"/>
<path d="M 57.57 59.12 L 58.46 58.98" stroke="#8f8a82" stroke-width="0.18" opacity="0.35"/>
<path d="M 57.13 64.71 L 57.99 64.99" stroke="#8f8a82" stroke-width="0.18" opacity="0.35"/>
<path d="M 54.21 69.49 L 54.84 70.12" stroke="#e8612a" stroke-width="0.3" opacity="0.8"/>
<circle cx="45.72" cy="61.00" r="11.60" fill="#0c0c0e" opacity="0.6"/>
<path d="M169.0 1493H610.0L916.0 694L1224.0 1493H1664.0V0H1336.0V1092L1027.0 287H807.0L498.0 1092V0H169.0ZM3040.7241379310344 1241Q2882.7241379310344 1241 2795.2241379310344 1111.0Q2707.7241379310344 981 2707.7241379310344 745Q2707.7241379310344 510 2795.2241379310344 380.0Q2882.7241379310344 250 3040.7241379310344 250Q3199.7241379310344 250 3287.2241379310344 380.0Q3374.7241379310344 510 3374.7241379310344 745Q3374.7241379310344 981 3287.2241379310344 1111.0Q3199.7241379310344 1241 3040.7241379310344 1241ZM3040.7241379310344 1520Q3364.7241379310344 1520 3548.2241379310344 1314.0Q3731.7241379310344 1108 3731.7241379310344 745Q3731.7241379310344 383 3548.2241379310344 177.0Q3364.7241379310344 -29 3040.7241379310344 -29Q2717.7241379310344 -29 2533.7241379310344 177.0Q2349.7241379310344 383 2349.7241379310344 745Q2349.7241379310344 1108 2533.7241379310344 1314.0Q2717.7241379310344 1520 3040.7241379310344 1520ZM4909.448275862069 831Q5017.448275862069 831 5064.948275862069 876.0Q5112.448275862069 921 5112.448275862069 1024Q5112.448275862069 1126 5064.948275862069 1170.0Q5017.448275862069 1214 4909.448275862069 1214H4763.448275862069V831ZM4763.448275862069 565V0H4416.448275862069V1493H4945.448275862069Q5211.448275862069 1493 5334.948275862069 1394.0Q5458.448275862069 1295 5458.448275862069 1081Q5458.448275862069 933 5394.448275862069 838.0Q5330.448275862069 743 5200.448275862069 698Q5271.448275862069 680 5327.948275862069 616.5Q5384.448275862069 553 5441.448275862069 424L5629.448275862069 0H5260.448275862069L5097.448275862069 371Q5047.448275862069 483 4996.448275862069 524.0Q4945.448275862069 565 4861.448275862069 565ZM6259.172413793103 1493H6834.172413793103Q7091.172413793103 1493 7228.172413793103 1366.5Q7365.172413793103 1240 7365.172413793103 1006Q7365.172413793103 771 7228.172413793103 644.5Q7091.172413793103 518 6834.172413793103 518H6606.172413793103V0H6259.172413793103ZM6606.172413793103 1214V797H6797.172413793103Q6898.172413793103 797 6953.172413793103 851.5Q7008.172413793103 906 7008.172413793103 1006Q7008.172413793103 1106 6953.172413793103 1160.0Q6898.172413793103 1214 6797.172413793103 1214ZM8032.896551724138 1493H8379.896551724138V924H8890.896551724138V1493H9236.896551724138V0H8890.896551724138V633H8379.896551724138V0H8032.896551724138Z" fill="#ece8e2" transform="translate(39.061,76.200) scale(0.001416,-0.001416)"/>
<path d="M 12.91 92.09 L 12.27 92.73" stroke="#e8612a" stroke-width="0.3" opacity="0.8"/>
<path d="M 11.15 89.22 L 10.30 89.50" stroke="#8f8a82" stroke-width="0.18" opacity="0.35"/>
<path d="M 10.89 85.87 L 10.00 85.73" stroke="#8f8a82" stroke-width="0.18" opacity="0.35"/>
<path d="M 12.18 82.77 L 11.45 82.24" stroke="#8f8a82" stroke-width="0.18" opacity="0.35"/>
<path d="M 14.73 80.58 L 14.32 79.78" stroke="#8f8a82" stroke-width="0.18" opacity="0.35"/>
<path d="M 18.00 79.80 L 18.00 78.90" stroke="#e8612a" stroke-width="0.3" opacity="0.8"/>
<path d="M 21.27 80.58 L 21.68 79.78" stroke="#8f8a82" stroke-width="0.18" opacity="0.35"/>
<path d="M 23.82 82.77 L 24.55 82.24" stroke="#8f8a82" stroke-width="0.18" opacity="0.35"/>
<path d="M 25.11 85.87 L 26.00 85.73" stroke="#8f8a82" stroke-width="0.18" opacity="0.35"/>
<path d="M 24.85 89.22 L 25.70 89.50" stroke="#8f8a82" stroke-width="0.18" opacity="0.35"/>
<path d="M 23.09 92.09 L 23.73 92.73" stroke="#e8612a" stroke-width="0.3" opacity="0.8"/>
<circle cx="18.00" cy="87.00" r="6.80" fill="#0c0c0e" opacity="0.6"/>
<path d="M1235.0 82Q1139.0 27 1035.5 -1.0Q932.0 -29 820.0 -29Q484.0 -29 288.0 179.5Q92.0 388 92.0 745Q92.0 1103 288.0 1311.5Q484.0 1520 820.0 1520Q932.0 1520 1035.5 1492.0Q1139.0 1464 1235.0 1409V1100Q1138.0 1173 1044.5 1207.0Q951.0 1241 848.0 1241Q662.0 1241 556.0 1109.0Q450.0 977 450.0 745Q450.0 514 556.0 382.0Q662.0 250 848.0 250Q951.0 250 1044.5 284.0Q1138.0 318 1235.0 391ZM1898.2631578947369 1493H2245.2631578947367V924H2756.2631578947367V1493H3102.2631578947367V0H2756.2631578947367V633H2245.2631578947367V0H1898.2631578947369ZM4633.526315789473 272H4091.5263157894738L4005.5263157894738 0H3657.5263157894738L4155.526315789473 1493H4568.526315789473L5066.526315789473 0H4717.526315789473ZM4177.526315789473 549H4545.526315789473L4362.526315789473 1143ZM6113.789473684211 831Q6221.789473684211 831 6269.289473684211 876.0Q6316.789473684211 921 6316.789473684211 1024Q6316.789473684211 1126 6269.289473684211 1170.0Q6221.789473684211 1214 6113.789473684211 1214H5967.789473684211V831ZM5967.789473684211 565V0H5620.789473684211V1493H6149.789473684211Q6415.789473684211 1493 6539.289473684211 1394.0Q6662.789473684211 1295 6662.789473684211 1081Q6662.789473684211 933 6598.789473684211 838.0Q6534.789473684211 743 6404.789473684211 698Q6475.789473684211 680 6532.289473684211 616.5Q6588.789473684211 553 6645.789473684211 424L6833.789473684211 0H6464.789473684211L6301.789473684211 371Q6251.789473684211 483 6200.789473684211 524.0Q6149.789473684211 565 6065.789473684211 565ZM8233.052631578947 272H7691.0526315789475L7605.0526315789475 0H7257.0526315789475L7755.0526315789475 1493H8168.0526315789475L8666.052631578947 0H8317.052631578947ZM7777.0526315789475 549H8145.0526315789475L7962.0526315789475 1143ZM10286.315789473685 82Q10190.315789473685 27 10086.815789473685 -1.0Q9983.315789473685 -29 9871.315789473685 -29Q9535.315789473685 -29 9339.315789473685 179.5Q9143.315789473685 388 9143.315789473685 745Q9143.315789473685 1103 9339.315789473685 1311.5Q9535.315789473685 1520 9871.315789473685 1520Q9983.315789473685 1520 10086.815789473685 1492.0Q10190.315789473685 1464 10286.315789473685 1409V1100Q10189.315789473685 1173 10095.815789473685 1207.0Q10002.315789473685 1241 9899.315789473685 1241Q9713.315789473685 1241 9607.315789473685 1109.0Q9501.315789473685 977 9501.315789473685 745Q9501.315789473685 514 9607.315789473685 382.0Q9713.315789473685 250 9899.315789473685 250Q10002.315789473685 250 10095.815789473685 284.0Q10189.315789473685 318 10286.315789473685 391ZM10789.578947368422 1493H12027.578947368422V1202H11582.578947368422V0H11235.578947368422V1202H10789.578947368422ZM12583.842105263158 1493H13518.842105263158V1202H12930.842105263158V924H13483.842105263158V633H12930.842105263158V291H13538.842105263158V0H12583.842105263158ZM14713.105263157895 831Q14821.105263157895 831 14868.605263157895 876.0Q14916.105263157895 921 14916.105263157895 1024Q14916.105263157895 1126 14868.605263157895 1170.0Q14821.105263157895 1214 14713.105263157895 1214H14567.105263157895V831ZM14567.105263157895 565V0H14220.105263157895V1493H14749.105263157895Q15015.105263157895 1493 15138.605263157895 1394.0Q15262.105263157895 1295 15262.105263157895 1081Q15262.105263157895 933 15198.105263157895 838.0Q15134.105263157895 743 15004.105263157895 698Q15075.105263157895 680 15131.605263157895 616.5Q15188.105263157895 553 15245.105263157895 424L15433.105263157895 0H15064.105263157895L14901.105263157895 371Q14851.105263157895 483 14800.105263157895 524.0Q14749.105263157895 565 14665.105263157895 565Z" fill="#c8c4be" transform="translate(10.824,97.400) scale(0.000928,-0.000928)"/>
<path d="M 31.15 92.09 L 30.51 92.73" stroke="#e8612a" stroke-width="0.3" opacity="0.8"/>
<path d="M 29.39 89.22 L 28.54 89.50" stroke="#8f8a82" stroke-width="0.18" opacity="0.35"/>
<path d="M 29.13 85.87 L 28.24 85.73" stroke="#8f8a82" stroke-width="0.18" opacity="0.35"/>
<path d="M 30.42 82.77 L 29.69 82.24" stroke="#8f8a82" stroke-width="0.18" opacity="0.35"/>
<path d="M 32.97 80.58 L 32.56 79.78" stroke="#8f8a82" stroke-width="0.18" opacity="0.35"/>
<path d="M 36.24 79.80 L 36.24 78.90" stroke="#8f8a82" stroke-width="0.18" opacity="0.35"/>
<path d="M 39.51 80.58 L 39.92 79.78" stroke="#8f8a82" stroke-width="0.18" opacity="0.35"/>
<path d="M 42.06 82.77 L 42.79 82.24" stroke="#8f8a82" stroke-width="0.18" opacity="0.35"/>
<path d="M 43.35 85.87 L 44.24 85.73" stroke="#8f8a82" stroke-width="0.18" opacity="0.35"/>
<path d="M 43.09 89.22 L 43.94 89.50" stroke="#8f8a82" stroke-width="0.18" opacity="0.35"/>
<path d="M 41.33 92.09 L 41.97 92.73" stroke="#e8612a" stroke-width="0.3" opacity="0.8"/>
<circle cx="36.24" cy="87.00" r="6.80" fill="#0c0c0e" opacity="0.6"/>
<path d="M516.0 1202V291H640.0Q852.0 291 964.0 408.0Q1076.0 525 1076.0 748Q1076.0 970 964.5 1086.0Q853.0 1202 640.0 1202ZM169.0 1493H535.0Q841.0 1493 990.5 1444.5Q1140.0 1396 1247.0 1280Q1342.0 1179 1388.0 1047.0Q1434.0 915 1434.0 748Q1434.0 579 1388.0 446.5Q1342.0 314 1247.0 213Q1139.0 97 988.0 48.5Q837.0 0 535.0 0H169.0ZM2569.2631578947367 831Q2677.2631578947367 831 2724.7631578947367 876.0Q2772.2631578947367 921 2772.2631578947367 1024Q2772.2631578947367 1126 2724.7631578947367 1170.0Q2677.2631578947367 1214 2569.2631578947367 1214H2423.2631578947367V831ZM2423.2631578947367 565V0H2076.2631578947367V1493H2605.2631578947367Q2871.2631578947367 1493 2994.7631578947367 1394.0Q3118.2631578947367 1295 3118.2631578947367 1081Q3118.2631578947367 933 3054.2631578947367 838.0Q2990.2631578947367 743 2860.2631578947367 698Q2931.2631578947367 680 2987.7631578947367 616.5Q3044.2631578947367 553 3101.2631578947367 424L3289.2631578947367 0H2920.2631578947367L2757.2631578947367 371Q2707.2631578947367 483 2656.2631578947367 524.0Q2605.2631578947367 565 2521.2631578947367 565ZM3872.5263157894738 1493H4219.526315789473V0H3872.5263157894738ZM4934.789473684211 1493H5869.789473684211V1202H5281.789473684211V924H5834.789473684211V633H5281.789473684211V0H4934.789473684211ZM6411.0526315789475 1493H7649.0526315789475V1202H7204.0526315789475V0H6857.0526315789475V1202H6411.0526315789475Z" fill="#c8c4be" transform="translate(32.687,97.400) scale(0.000928,-0.000928)"/>
<path d="M 49.39 92.09 L 48.75 92.73" stroke="#e8612a" stroke-width="0.3" opacity="0.8"/>
<path d="M 47.63 89.22 L 46.78 89.50" stroke="#8f8a82" stroke-width="0.18" opacity="0.35"/>
<path d="M 47.37 85.87 L 46.48 85.73" stroke="#8f8a82" stroke-width="0.18" opacity="0.35"/>
<path d="M 48.66 82.77 L 47.93 82.24" stroke="#8f8a82" stroke-width="0.18" opacity="0.35"/>
<path d="M 51.21 80.58 L 50.80 79.78" stroke="#8f8a82" stroke-width="0.18" opacity="0.35"/>
<path d="M 54.48 79.80 L 54.48 78.90" stroke="#8f8a82" stroke-width="0.18" opacity="0.35"/>
<path d="M 57.75 80.58 L 58.16 79.78" stroke="#8f8a82" stroke-width="0.18" opacity="0.35"/>
<path d="M 60.30 82.77 L 61.03 82.24" stroke="#8f8a82" stroke-width="0.18" opacity="0.35"/>
<path d="M 61.59 85.87 L 62.48 85.73" stroke="#8f8a82" stroke-width="0.18" opacity="0.35"/>
<path d="M 61.33 89.22 L 62.18 89.50" stroke="#8f8a82" stroke-width="0.18" opacity="0.35"/>
<path d="M 59.57 92.09 L 60.21 92.73" stroke="#e8612a" stroke-width="0.3" opacity="0.8"/>
<circle cx="54.48" cy="87.00" r="6.80" fill="#0c0c0e" opacity="0.6"/>
<path d="M662.0 831Q770.0 831 817.5 876.0Q865.0 921 865.0 1024Q865.0 1126 817.5 1170.0Q770.0 1214 662.0 1214H516.0V831ZM516.0 565V0H169.0V1493H698.0Q964.0 1493 1087.5 1394.0Q1211.0 1295 1211.0 1081Q1211.0 933 1147.0 838.0Q1083.0 743 953.0 698Q1024.0 680 1080.5 616.5Q1137.0 553 1194.0 424L1382.0 0H1013.0L850.0 371Q800.0 483 749.0 524.0Q698.0 565 614.0 565ZM2781.2631578947367 272H2239.2631578947367L2153.2631578947367 0H1805.2631578947369L2303.2631578947367 1493H2716.2631578947367L3214.2631578947367 0H2865.2631578947367ZM2325.2631578947367 549H2693.2631578947367L2510.2631578947367 1143ZM3608.5263157894738 1493H4846.526315789473V1202H4401.526315789473V0H4054.5263157894738V1202H3608.5263157894738ZM5402.789473684211 1493H6337.789473684211V1202H5749.789473684211V924H6302.789473684211V633H5749.789473684211V291H6357.789473684211V0H5402.789473684211Z" fill="#c8c4be" transform="translate(51.468,97.400) scale(0.000928,-0.000928)"/>
<path d="M 67.63 92.09 L 66.99 92.73" stroke="#e8612a" stroke-width="0.3" opacity="0.8"/>
<path d="M 65.87 89.22 L 65.02 89.50" stroke="#8f8a82" stroke-width="0.18" opacity="0.35"/>
<path d="M 65.61 85.87 L 64.72 85.73" stroke="#8f8a82" stroke-width="0.18" opacity="0.35"/>
<path d="M 66.90 82.77 L 66.17 82.24" stroke="#8f8a82" stroke-width="0.18" opacity="0.35"/>
<path d="M 69.45 80.58 L 69.04 79.78" stroke="#8f8a82" stroke-width="0.18" opacity="0.35"/>
<path d="M 72.72 79.80 L 72.72 78.90" stroke="#e8612a" stroke-width="0.3" opacity="0.8"/>
<path d="M 75.99 80.58 L 76.40 79.78" stroke="#8f8a82" stroke-width="0.18" opacity="0.35"/>
<path d="M 78.54 82.77 L 79.27 82.24" stroke="#8f8a82" stroke-width="0.18" opacity="0.35"/>
<path d="M 79.83 85.87 L 80.72 85.73" stroke="#8f8a82" stroke-width="0.18" opacity="0.35"/>
<path d="M 79.57 89.22 L 80.42 89.50" stroke="#8f8a82" stroke-width="0.18" opacity="0.35"/>
<path d="M 77.81 92.09 L 78.45 92.73" stroke="#e8612a" stroke-width="0.3" opacity="0.8"/>
<circle cx="72.72" cy="87.00" r="6.80" fill="#0c0c0e" opacity="0.6"/>
<path d="M169.0 1493H744.0Q1001.0 1493 1138.0 1366.5Q1275.0 1240 1275.0 1006Q1275.0 771 1138.0 644.5Q1001.0 518 744.0 518H516.0V0H169.0ZM516.0 1214V797H707.0Q808.0 797 863.0 851.5Q918.0 906 918.0 1006Q918.0 1106 863.0 1160.0Q808.0 1214 707.0 1214ZM1896.2631578947369 1493H2243.2631578947367V924H2754.2631578947367V1493H3100.2631578947367V0H2754.2631578947367V633H2243.2631578947367V0H1896.2631578947369ZM4631.526315789473 272H4089.5263157894738L4003.5263157894738 0H3655.5263157894738L4153.526315789473 1493H4566.526315789473L5064.526315789473 0H4715.526315789473ZM4175.526315789473 549H4543.526315789473L4360.526315789473 1143ZM6553.789473684211 1446V1130Q6443.789473684211 1185 6338.289473684211 1213.0Q6232.789473684211 1241 6138.789473684211 1241Q6014.789473684211 1241 5955.289473684211 1203.0Q5895.789473684211 1165 5895.789473684211 1085Q5895.789473684211 1025 5935.789473684211 991.5Q5975.789473684211 958 6081.789473684211 934L6228.789473684211 901Q6453.789473684211 851 6547.789473684211 749.0Q6641.789473684211 647 6641.789473684211 459Q6641.789473684211 212 6510.289473684211 91.5Q6378.789473684211 -29 6107.789473684211 -29Q5979.789473684211 -29 5851.289473684211 -2.0Q5722.789473684211 25 5593.789473684211 78V403Q5722.789473684211 327 5842.789473684211 288.5Q5962.789473684211 250 6074.789473684211 250Q6187.789473684211 250 6248.289473684211 292.0Q6308.789473684211 334 6308.789473684211 412Q6308.789473684211 482 6267.789473684211 520.0Q6226.789473684211 558 6103.789473684211 588L5969.789473684211 621Q5768.789473684211 669 5675.289473684211 774.0Q5581.789473684211 879 5581.789473684211 1057Q5581.789473684211 1280 5711.789473684211 1400.0Q5841.789473684211 1520 6083.789473684211 1520Q6194.789473684211 1520 6311.789473684211 1501.5Q6428.789473684211 1483 6553.789473684211 1446ZM7323.0526315789475 1493H8258.052631578947V1202H7670.0526315789475V924H8223.052631578947V633H7670.0526315789475V291H8278.052631578947V0H7323.0526315789475Z" fill="#c8c4be" transform="translate(68.817,97.400) scale(0.000928,-0.000928)"/>
<rect x="3.6" y="101.50" width="84.24" height="24.0" rx="1.6" fill="#050506" opacity="0.55" stroke="#1c1c1f" stroke-width="0.3"/>
<rect x="3.6" y="101.50" width="84.24" height="0.5" fill="#000" opacity="0.6"/>
<path d="M 5 100.50 L 86.44 100.50" stroke="#55504a" stroke-width="0.2" opacity="0.5"/>
<path d="M86.0 1493H356.0L614.0 733L874.0 1493H1145.0V0H958.0V1319L692.0 532H539.0L272.0 1319V0H86.0ZM2420.4827586206898 745Q2420.4827586206898 1074 2352.9827586206898 1215.0Q2285.4827586206898 1356 2131.4827586206898 1356Q1978.4827586206898 1356 1910.9827586206898 1215.0Q1843.4827586206898 1074 1843.4827586206898 745Q1843.4827586206898 417 1910.9827586206898 276.0Q1978.4827586206898 135 2131.4827586206898 135Q2285.4827586206898 135 2352.9827586206898 275.5Q2420.4827586206898 416 2420.4827586206898 745ZM2631.4827586206898 745Q2631.4827586206898 355 2507.9827586206898 163.0Q2384.4827586206898 -29 2131.4827586206898 -29Q1878.4827586206898 -29 1755.4827586206898 162.0Q1632.4827586206898 353 1632.4827586206898 745Q1632.4827586206898 1136 1755.9827586206898 1328.0Q1879.4827586206898 1520 2131.4827586206898 1520Q2384.4827586206898 1520 2507.9827586206898 1328.0Q2631.4827586206898 1136 2631.4827586206898 745ZM3790.9655172413795 705Q3868.9655172413795 685 3923.9655172413795 629.5Q3978.9655172413795 574 4060.9655172413795 408L4263.9655172413795 0H4046.9655172413795L3868.9655172413795 377Q3791.9655172413795 538 3730.4655172413795 584.5Q3668.9655172413795 631 3569.9655172413795 631H3376.9655172413795V0H3173.9655172413795V1493H3589.9655172413795Q3835.9655172413795 1493 3966.9655172413795 1382.0Q4097.9655172413795 1271 4097.9655172413795 1061Q4097.9655172413795 913 4017.4655172413795 819.5Q3936.9655172413795 726 3790.9655172413795 705ZM3376.9655172413795 1327V797H3597.9655172413795Q3742.9655172413795 797 3813.9655172413795 862.0Q3884.9655172413795 927 3884.9655172413795 1061Q3884.9655172413795 1190 3809.4655172413795 1258.5Q3733.9655172413795 1327 3589.9655172413795 1327ZM4945.448275862069 1327V766H5179.448275862069Q5319.448275862069 766 5397.948275862069 840.0Q5476.448275862069 914 5476.448275862069 1047Q5476.448275862069 1180 5398.448275862069 1253.5Q5320.448275862069 1327 5179.448275862069 1327ZM4743.448275862069 1493H5179.448275862069Q5429.448275862069 1493 5558.448275862069 1379.5Q5687.448275862069 1266 5687.448275862069 1047Q5687.448275862069 826 5558.948275862069 713.0Q5430.448275862069 600 5179.448275862069 600H4945.448275862069V0H4743.448275862069ZM6198.931034482759 1493H6401.931034482759V881H6954.931034482759V1493H7157.931034482759V0H6954.931034482759V711H6401.931034482759V0H6198.931034482759Z" fill="#a39e96" transform="translate(5.118,103.900) scale(0.000708,-0.000708)"/>
<path d="M 7.70 105.60 L 7.70 105.10" stroke="#8f8a82" stroke-width="0.15" opacity="0.4"/>
<path d="M 9.75 106.45 L 10.10 106.10" stroke="#8f8a82" stroke-width="0.15" opacity="0.4"/>
<path d="M 10.60 108.50 L 11.10 108.50" stroke="#8f8a82" stroke-width="0.15" opacity="0.4"/>
<path d="M 9.75 110.55 L 10.10 110.90" stroke="#8f8a82" stroke-width="0.15" opacity="0.4"/>
<path d="M 7.70 111.40 L 7.70 111.90" stroke="#8f8a82" stroke-width="0.15" opacity="0.4"/>
<path d="M 5.65 110.55 L 5.30 110.90" stroke="#8f8a82" stroke-width="0.15" opacity="0.4"/>
<path d="M 4.80 108.50 L 4.30 108.50" stroke="#8f8a82" stroke-width="0.15" opacity="0.4"/>
<path d="M 5.65 106.45 L 5.30 106.10" stroke="#8f8a82" stroke-width="0.15" opacity="0.4"/>
<circle cx="7.70" cy="119.50" r="3.70" fill="url(#jack)" stroke="#3a3a40" stroke-width="0.25"/>
<circle cx="7.70" cy="119.50" r="1.67" fill="#040405" stroke="#2a2a2e" stroke-width="0.2"/>
<path d="M1073.0 53Q996.0 12 915.0 -8.5Q834.0 -29 743.0 -29Q456.0 -29 297.5 174.0Q139.0 377 139.0 745Q139.0 1111 298.5 1315.5Q458.0 1520 743.0 1520Q834.0 1520 915.0 1499.5Q996.0 1479 1073.0 1438V1231Q999.0 1292 914.0 1324.0Q829.0 1356 743.0 1356Q546.0 1356 448.0 1204.0Q350.0 1052 350.0 745Q350.0 439 448.0 287.0Q546.0 135 743.0 135Q831.0 135 915.5 167.0Q1000.0 199 1073.0 260ZM1652.4827586206898 1493H1855.4827586206898V881H2408.4827586206898V1493H2611.4827586206898V0H2408.4827586206898V711H1855.4827586206898V0H1652.4827586206898ZM3646.9655172413795 1315 3433.9655172413795 551H3859.9655172413795ZM3524.9655172413795 1493H3769.9655172413795L4226.9655172413795 0H4017.9655172413795L3907.9655172413795 389H3384.9655172413795L3276.9655172413795 0H3067.9655172413795ZM5306.448275862069 705Q5384.448275862069 685 5439.448275862069 629.5Q5494.448275862069 574 5576.448275862069 408L5779.448275862069 0H5562.448275862069L5384.448275862069 377Q5307.448275862069 538 5245.948275862069 584.5Q5184.448275862069 631 5085.448275862069 631H4892.448275862069V0H4689.448275862069V1493H5105.448275862069Q5351.448275862069 1493 5482.448275862069 1382.0Q5613.448275862069 1271 5613.448275862069 1061Q5613.448275862069 913 5532.948275862069 819.5Q5452.448275862069 726 5306.448275862069 705ZM4892.448275862069 1327V797H5113.448275862069Q5258.448275862069 797 5329.448275862069 862.0Q5400.448275862069 927 5400.448275862069 1061Q5400.448275862069 1190 5324.948275862069 1258.5Q5249.448275862069 1327 5105.448275862069 1327Z" fill="#a39e96" transform="translate(16.517,103.900) scale(0.000708,-0.000708)"/>
<path d="M 18.56 105.60 L 18.56 105.10" stroke="#8f8a82" stroke-width="0.15" opacity="0.4"/>
<path d="M 20.61 106.45 L 20.97 106.10" stroke="#8f8a82" stroke-width="0.15" opacity="0.4"/>
<path d="M 21.46 108.50 L 21.96 108.50" stroke="#8f8a82" stroke-width="0.15" opacity="0.4"/>
<path d="M 20.61 110.55 L 20.97 110.90" stroke="#8f8a82" stroke-width="0.15" opacity="0.4"/>
<path d="M 18.56 111.40 L 18.56 111.90" stroke="#8f8a82" stroke-width="0.15" opacity="0.4"/>
<path d="M 16.51 110.55 L 16.16 110.90" stroke="#8f8a82" stroke-width="0.15" opacity="0.4"/>
<path d="M 15.66 108.50 L 15.16 108.50" stroke="#8f8a82" stroke-width="0.15" opacity="0.4"/>
<path d="M 16.51 106.45 L 16.16 106.10" stroke="#8f8a82" stroke-width="0.15" opacity="0.4"/>
<circle cx="18.56" cy="119.50" r="3.70" fill="url(#jack)" stroke="#3a3a40" stroke-width="0.25"/>
<circle cx="18.56" cy="119.50" r="1.67" fill="#040405" stroke="#2a2a2e" stroke-width="0.2"/>
<path d="M436.0 166Q691.0 166 792.0 291.5Q893.0 417 893.0 745Q893.0 1076 792.5 1201.5Q692.0 1327 436.0 1327H340.0V166ZM440.0 1493Q782.0 1493 944.0 1311.0Q1106.0 1129 1106.0 745Q1106.0 363 944.0 181.5Q782.0 0 440.0 0H137.0V1493ZM2275.4827586206898 705Q2353.4827586206898 685 2408.4827586206898 629.5Q2463.4827586206898 574 2545.4827586206898 408L2748.4827586206898 0H2531.4827586206898L2353.4827586206898 377Q2276.4827586206898 538 2214.9827586206898 584.5Q2153.4827586206898 631 2054.4827586206898 631H1861.4827586206898V0H1658.4827586206898V1493H2074.4827586206898Q2320.4827586206898 1493 2451.4827586206898 1382.0Q2582.4827586206898 1271 2582.4827586206898 1061Q2582.4827586206898 913 2501.9827586206898 819.5Q2421.4827586206898 726 2275.4827586206898 705ZM1861.4827586206898 1327V797H2082.4827586206898Q2227.4827586206898 797 2298.4827586206898 862.0Q2369.4827586206898 927 2369.4827586206898 1061Q2369.4827586206898 1190 2293.9827586206898 1258.5Q2218.4827586206898 1327 2074.4827586206898 1327ZM3231.9655172413795 1493H4060.9655172413795V1323H3747.9655172413795V170H4060.9655172413795V0H3231.9655172413795V170H3544.9655172413795V1323H3231.9655172413795ZM4779.448275862069 1493H5658.448275862069V1323H4982.448275862069V883H5595.448275862069V713H4982.448275862069V0H4779.448275862069ZM6108.931034482759 1493H7247.931034482759V1323H6780.931034482759V0H6577.931034482759V1323H6108.931034482759Z" fill="#a39e96" transform="translate(26.843,103.900) scale(0.000708,-0.000708)"/>
<path d="M 29.43 105.60 L 29.43 105.10" stroke="#8f8a82" stroke-width="0.15" opacity="0.4"/>
<path d="M 31.48 106.45 L 31.83 106.10" stroke="#8f8a82" stroke-width="0.15" opacity="0.4"/>
<path d="M 32.33 108.50 L 32.83 108.50" stroke="#8f8a82" stroke-width="0.15" opacity="0.4"/>
<path d="M 31.48 110.55 L 31.83 110.90" stroke="#8f8a82" stroke-width="0.15" opacity="0.4"/>
<path d="M 29.43 111.40 L 29.43 111.90" stroke="#8f8a82" stroke-width="0.15" opacity="0.4"/>
<path d="M 27.38 110.55 L 27.02 110.90" stroke="#8f8a82" stroke-width="0.15" opacity="0.4"/>
<path d="M 26.53 108.50 L 26.03 108.50" stroke="#8f8a82" stroke-width="0.15" opacity="0.4"/>
<path d="M 27.38 106.45 L 27.02 106.10" stroke="#8f8a82" stroke-width="0.15" opacity="0.4"/>
<circle cx="29.43" cy="119.50" r="3.70" fill="url(#jack)" stroke="#3a3a40" stroke-width="0.25"/>
<circle cx="29.43" cy="119.50" r="1.67" fill="#040405" stroke="#2a2a2e" stroke-width="0.2"/>
<path d="M399.0 1327V766H633.0Q773.0 766 851.5 840.0Q930.0 914 930.0 1047Q930.0 1180 852.0 1253.5Q774.0 1327 633.0 1327ZM197.0 1493H633.0Q883.0 1493 1012.0 1379.5Q1141.0 1266 1141.0 1047Q1141.0 826 1012.5 713.0Q884.0 600 633.0 600H399.0V0H197.0ZM1652.4827586206898 1493H1855.4827586206898V881H2408.4827586206898V1493H2611.4827586206898V0H2408.4827586206898V711H1855.4827586206898V0H1652.4827586206898ZM3646.9655172413795 1315 3433.9655172413795 551H3859.9655172413795ZM3524.9655172413795 1493H3769.9655172413795L4226.9655172413795 0H4017.9655172413795L3907.9655172413795 389H3384.9655172413795L3276.9655172413795 0H3067.9655172413795ZM5558.448275862069 1442V1237Q5466.448275862069 1296 5373.948275862069 1326.0Q5281.448275862069 1356 5187.448275862069 1356Q5044.448275862069 1356 4961.448275862069 1289.5Q4878.448275862069 1223 4878.448275862069 1110Q4878.448275862069 1011 4932.948275862069 959.0Q4987.448275862069 907 5136.448275862069 872L5242.448275862069 848Q5452.448275862069 799 5548.448275862069 694.0Q5644.448275862069 589 5644.448275862069 408Q5644.448275862069 195 5512.448275862069 83.0Q5380.448275862069 -29 5128.448275862069 -29Q5023.448275862069 -29 4917.448275862069 -6.5Q4811.448275862069 16 4704.448275862069 61V276Q4819.448275862069 203 4921.948275862069 169.0Q5024.448275862069 135 5128.448275862069 135Q5281.448275862069 135 5366.448275862069 203.5Q5451.448275862069 272 5451.448275862069 395Q5451.448275862069 507 5392.948275862069 566.0Q5334.448275862069 625 5189.448275862069 657L5081.448275862069 682Q4873.448275862069 729 4779.448275862069 824.0Q4685.448275862069 919 4685.448275862069 1079Q4685.448275862069 1279 4819.948275862069 1399.5Q4954.448275862069 1520 5177.448275862069 1520Q5263.448275862069 1520 5358.448275862069 1500.5Q5453.448275862069 1481 5558.448275862069 1442ZM6258.931034482759 1493H7144.931034482759V1323H6460.931034482759V881H7114.931034482759V711H6460.931034482759V170H7163.931034482759V0H6258.931034482759Z" fill="#a39e96" transform="translate(37.706,103.900) scale(0.000708,-0.000708)"/>
<path d="M 40.29 105.60 L 40.29 105.10" stroke="#8f8a82" stroke-width="0.15" opacity="0.4"/>
<path d="M 42.34 106.45 L 42.69 106.10" stroke="#8f8a82" stroke-width="0.15" opacity="0.4"/>
<path d="M 43.19 108.50 L 43.69 108.50" stroke="#8f8a82" stroke-width="0.15" opacity="0.4"/>
<path d="M 42.34 110.55 L 42.69 110.90" stroke="#8f8a82" stroke-width="0.15" opacity="0.4"/>
<path d="M 40.29 111.40 L 40.29 111.90" stroke="#8f8a82" stroke-width="0.15" opacity="0.4"/>
<path d="M 38.24 110.55 L 37.88 110.90" stroke="#8f8a82" stroke-width="0.15" opacity="0.4"/>
<path d="M 37.39 108.50 L 36.89 108.50" stroke="#8f8a82" stroke-width="0.15" opacity="0.4"/>
<path d="M 38.24 106.45 L 37.88 106.10" stroke="#8f8a82" stroke-width="0.15" opacity="0.4"/>
<circle cx="40.29" cy="119.50" r="3.70" fill="url(#jack)" stroke="#3a3a40" stroke-width="0.25"/>
<circle cx="40.29" cy="119.50" r="1.67" fill="#040405" stroke="#2a2a2e" stroke-width="0.2"/>
<path d="M233.0 1493H1112.0V1323H436.0V883H1049.0V713H436.0V0H233.0ZM1601.4827586206898 1493H1871.4827586206898L2129.4827586206898 733L2389.4827586206898 1493H2660.4827586206898V0H2473.4827586206898V1319L2207.4827586206898 532H2054.4827586206898L1787.4827586206898 1319V0H1601.4827586206898Z" fill="#a39e96" transform="translate(50.178,103.900) scale(0.000708,-0.000708)"/>
<path d="M 51.15 105.60 L 51.15 105.10" stroke="#8f8a82" stroke-width="0.15" opacity="0.4"/>
<path d="M 53.20 106.45 L 53.56 106.10" stroke="#8f8a82" stroke-width="0.15" opacity="0.4"/>
<path d="M 54.05 108.50 L 54.55 108.50" stroke="#8f8a82" stroke-width="0.15" opacity="0.4"/>
<path d="M 53.20 110.55 L 53.56 110.90" stroke="#8f8a82" stroke-width="0.15" opacity="0.4"/>
<path d="M 51.15 111.40 L 51.15 111.90" stroke="#8f8a82" stroke-width="0.15" opacity="0.4"/>
<path d="M 49.10 110.55 L 48.75 110.90" stroke="#8f8a82" stroke-width="0.15" opacity="0.4"/>
<path d="M 48.25 108.50 L 47.75 108.50" stroke="#8f8a82" stroke-width="0.15" opacity="0.4"/>
<path d="M 49.10 106.45 L 48.75 106.10" stroke="#8f8a82" stroke-width="0.15" opacity="0.4"/>
<circle cx="51.15" cy="119.50" r="3.70" fill="url(#jack)" stroke="#3a3a40" stroke-width="0.25"/>
<circle cx="51.15" cy="119.50" r="1.67" fill="#040405" stroke="#2a2a2e" stroke-width="0.2"/>
<path d="M 56.58 102.00 L 56.58 124.50" stroke="#55504a" stroke-width="0.2" opacity="0.5"/>
<path d="M1073.0 53Q996.0 12 915.0 -8.5Q834.0 -29 743.0 -29Q456.0 -29 297.5 174.0Q139.0 377 139.0 745Q139.0 1111 298.5 1315.5Q458.0 1520 743.0 1520Q834.0 1520 915.0 1499.5Q996.0 1479 1073.0 1438V1231Q999.0 1292 914.0 1324.0Q829.0 1356 743.0 1356Q546.0 1356 448.0 1204.0Q350.0 1052 350.0 745Q350.0 439 448.0 287.0Q546.0 135 743.0 135Q831.0 135 915.5 167.0Q1000.0 199 1073.0 260ZM2295.448275862069 1493H2498.448275862069V170H3219.448275862069V0H2295.448275862069ZM5065.896551724138 745Q5065.896551724138 1074 4998.396551724138 1215.0Q4930.896551724138 1356 4776.896551724138 1356Q4623.896551724138 1356 4556.396551724138 1215.0Q4488.896551724138 1074 4488.896551724138 745Q4488.896551724138 417 4556.396551724138 276.0Q4623.896551724138 135 4776.896551724138 135Q4930.896551724138 135 4998.396551724138 275.5Q5065.896551724138 416 5065.896551724138 745ZM5276.896551724138 745Q5276.896551724138 355 5153.396551724138 163.0Q5029.896551724138 -29 4776.896551724138 -29Q4523.896551724138 -29 4400.896551724138 162.0Q4277.896551724138 353 4277.896551724138 745Q4277.896551724138 1136 4401.396551724138 1328.0Q4524.896551724138 1520 4776.896551724138 1520Q5029.896551724138 1520 5153.396551724138 1328.0Q5276.896551724138 1136 5276.896551724138 745ZM7314.3448275862065 53Q7237.3448275862065 12 7156.3448275862065 -8.5Q7075.3448275862065 -29 6984.3448275862065 -29Q6697.3448275862065 -29 6538.8448275862065 174.0Q6380.3448275862065 377 6380.3448275862065 745Q6380.3448275862065 1111 6539.8448275862065 1315.5Q6699.3448275862065 1520 6984.3448275862065 1520Q7075.3448275862065 1520 7156.3448275862065 1499.5Q7237.3448275862065 1479 7314.3448275862065 1438V1231Q7240.3448275862065 1292 7155.3448275862065 1324.0Q7070.3448275862065 1356 6984.3448275862065 1356Q6787.3448275862065 1356 6689.3448275862065 1204.0Q6591.3448275862065 1052 6591.3448275862065 745Q6591.3448275862065 439 6689.3448275862065 287.0Q6787.3448275862065 135 6984.3448275862065 135Q7072.3448275862065 135 7156.8448275862065 167.0Q7241.3448275862065 199 7314.3448275862065 260ZM8458.793103448275 1493H8661.793103448275V829L9292.793103448275 1493H9529.793103448275L8948.793103448275 883L9546.793103448275 0H9302.793103448275L8815.793103448275 748L8661.793103448275 584V0H8458.793103448275Z" fill="#a39e96" transform="translate(64.063,103.900) scale(0.000708,-0.000708)"/>
<path d="M1235.0 82Q1139.0 27 1035.5 -1.0Q932.0 -29 820.0 -29Q484.0 -29 288.0 179.5Q92.0 388 92.0 745Q92.0 1103 288.0 1311.5Q484.0 1520 820.0 1520Q932.0 1520 1035.5 1492.0Q1139.0 1464 1235.0 1409V1100Q1138.0 1173 1044.5 1207.0Q951.0 1241 848.0 1241Q662.0 1241 556.0 1109.0Q450.0 977 450.0 745Q450.0 514 556.0 382.0Q662.0 250 848.0 250Q951.0 250 1044.5 284.0Q1138.0 318 1235.0 391ZM2067.133333333333 1493H2414.133333333333V291H3022.133333333333V0H2067.133333333333ZM3787.2666666666664 1493H4134.266666666666V948L4633.266666666666 1493H5036.266666666666L4388.266666666666 786L5102.266666666666 0H4668.266666666666L4134.266666666666 588V0H3787.2666666666664Z" fill="#c8c4be" transform="translate(60.166,112.500) scale(0.000732,-0.000732)"/>
<circle cx="62.01" cy="119.50" r="3.70" fill="url(#jack)" stroke="#3a3a40" stroke-width="0.25"/>
<circle cx="62.01" cy="119.50" r="1.67" fill="#040405" stroke="#2a2a2e" stroke-width="0.2"/>
<path d="M662.0 831Q770.0 831 817.5 876.0Q865.0 921 865.0 1024Q865.0 1126 817.5 1170.0Q770.0 1214 662.0 1214H516.0V831ZM516.0 565V0H169.0V1493H698.0Q964.0 1493 1087.5 1394.0Q1211.0 1295 1211.0 1081Q1211.0 933 1147.0 838.0Q1083.0 743 953.0 698Q1024.0 680 1080.5 616.5Q1137.0 553 1194.0 424L1382.0 0H1013.0L850.0 371Q800.0 483 749.0 524.0Q698.0 565 614.0 565ZM3069.133333333333 1446V1130Q2959.133333333333 1185 2853.633333333333 1213.0Q2748.133333333333 1241 2654.133333333333 1241Q2530.133333333333 1241 2470.633333333333 1203.0Q2411.133333333333 1165 2411.133333333333 1085Q2411.133333333333 1025 2451.133333333333 991.5Q2491.133333333333 958 2597.133333333333 934L2744.133333333333 901Q2969.133333333333 851 3063.133333333333 749.0Q3157.133333333333 647 3157.133333333333 459Q3157.133333333333 212 3025.633333333333 91.5Q2894.133333333333 -29 2623.133333333333 -29Q2495.133333333333 -29 2366.633333333333 -2.0Q2238.133333333333 25 2109.133333333333 78V403Q2238.133333333333 327 2358.133333333333 288.5Q2478.133333333333 250 2590.133333333333 250Q2703.133333333333 250 2763.633333333333 292.0Q2824.133333333333 334 2824.133333333333 412Q2824.133333333333 482 2783.133333333333 520.0Q2742.133333333333 558 2619.133333333333 588L2485.133333333333 621Q2284.133333333333 669 2190.633333333333 774.0Q2097.133333333333 879 2097.133333333333 1057Q2097.133333333333 1280 2227.133333333333 1400.0Q2357.133333333333 1520 2599.133333333333 1520Q2710.133333333333 1520 2827.133333333333 1501.5Q2944.133333333333 1483 3069.133333333333 1446ZM3847.2666666666664 1493H5085.266666666666V1202H4640.266666666666V0H4293.266666666666V1202H3847.2666666666664Z" fill="#c8c4be" transform="translate(71.011,112.500) scale(0.000732,-0.000732)"/>
<circle cx="72.88" cy="119.50" r="3.70" fill="url(#jack)" stroke="#3a3a40" stroke-width="0.25"/>
<circle cx="72.88" cy="119.50" r="1.67" fill="#040405" stroke="#2a2a2e" stroke-width="0.2"/>
<path d="M783.0 1241Q625.0 1241 537.5 1111.0Q450.0 981 450.0 745Q450.0 510 537.5 380.0Q625.0 250 783.0 250Q942.0 250 1029.5 380.0Q1117.0 510 1117.0 745Q1117.0 981 1029.5 1111.0Q942.0 1241 783.0 1241ZM783.0 1520Q1107.0 1520 1290.5 1314.0Q1474.0 1108 1474.0 745Q1474.0 383 1290.5 177.0Q1107.0 -29 783.0 -29Q460.0 -29 276.0 177.0Q92.0 383 92.0 745Q92.0 1108 276.0 1314.0Q460.0 1520 783.0 1520ZM2216.8823529411766 1493H2563.8823529411766V598Q2563.8823529411766 413 2618.3823529411766 333.5Q2672.8823529411766 254 2795.8823529411766 254Q2919.8823529411766 254 2974.3823529411766 333.5Q3028.8823529411766 413 3028.8823529411766 598V1493H3375.8823529411766V598Q3375.8823529411766 281 3232.3823529411766 126.0Q3088.8823529411766 -29 2795.8823529411766 -29Q2502.8823529411766 -29 2359.8823529411766 126.0Q2216.8823529411766 281 2216.8823529411766 598ZM4034.764705882353 1493H5272.764705882353V1202H4827.764705882353V0H4480.764705882353V1202H4034.764705882353Z" fill="#ff8a4c" transform="translate(81.547,112.500) scale(0.000830,-0.000830)"/>
<circle cx="83.74" cy="119.50" r="5.30" fill="none" stroke="#e8612a" stroke-width="0.6" opacity="0.7"/>
<circle cx="83.74" cy="119.50" r="6.10" fill="none" stroke="#e8612a" stroke-width="0.25" opacity="0.3"/>
<circle cx="83.74" cy="119.50" r="4.20" fill="url(#jack)" stroke="#3a3a40" stroke-width="0.25"/>
<circle cx="83.74" cy="119.50" r="1.89" fill="#040405" stroke="#2a2a2e" stroke-width="0.2"/>
<path d="M684.0 1556V1403H526.0Q436.0 1403 401.5 1363.0Q367.0 1323 367.0 1219V1120H640.0V977H367.0V0H201.0V977H42.0V1120H201.0V1198Q201.0 1385 279.0 1470.5Q357.0 1556 527.0 1556ZM3102.461538461538 991Q2969.461538461538 991 2891.961538461538 875.5Q2814.461538461538 760 2814.461538461538 559Q2814.461538461538 358 2891.461538461538 242.5Q2968.461538461538 127 3102.461538461538 127Q3235.461538461538 127 3312.461538461538 243.0Q3389.461538461538 359 3389.461538461538 559Q3389.461538461538 758 3312.461538461538 874.5Q3235.461538461538 991 3102.461538461538 991ZM3102.461538461538 1147Q3318.461538461538 1147 3441.961538461538 991.0Q3565.461538461538 835 3565.461538461538 559Q3565.461538461538 284 3441.961538461538 127.5Q3318.461538461538 -29 3102.461538461538 -29Q2885.461538461538 -29 2762.961538461538 127.5Q2640.461538461538 284 2640.461538461538 559Q2640.461538461538 835 2762.961538461538 991.0Q2885.461538461538 1147 3102.461538461538 1147ZM6313.923076923076 948Q6285.923076923076 966 6252.923076923076 974.5Q6219.923076923076 983 6180.923076923076 983Q6039.923076923076 983 5964.923076923076 881.5Q5889.923076923076 780 5889.923076923076 590V0H5722.923076923076V1120H5889.923076923076V946Q5941.923076923076 1048 6025.923076923076 1097.5Q6109.923076923076 1147 6228.923076923076 1147Q6245.923076923076 1147 6266.923076923076 1144.5Q6287.923076923076 1142 6312.923076923076 1137ZM9040.384615384613 573Q9040.384615384613 773 8965.884615384613 883.0Q8891.384615384613 993 8757.384615384613 993Q8624.384615384613 993 8550.384615384613 883.0Q8476.384615384613 773 8476.384615384613 573Q8476.384615384613 374 8550.384615384613 264.0Q8624.384615384613 154 8757.384615384613 154Q8891.384615384613 154 8965.884615384613 264.0Q9040.384615384613 374 9040.384615384613 573ZM9206.384615384613 139Q9206.384615384613 -147 9091.884615384613 -286.5Q8977.384615384613 -426 8741.384615384613 -426Q8654.384615384613 -426 8576.884615384613 -411.5Q8499.384615384613 -397 8426.384615384613 -367V-188Q8499.384615384613 -232 8570.384615384613 -253.0Q8641.384615384613 -274 8715.384615384613 -274Q8878.384615384613 -274 8959.384615384613 -179.5Q9040.384615384613 -85 9040.384615384613 106V197Q8989.384615384613 98 8909.384615384613 49.0Q8829.384615384613 0 8717.384615384613 0Q8531.384615384613 0 8418.384615384613 157.0Q8305.384615384613 314 8305.384615384613 573Q8305.384615384613 833 8418.384615384613 990.0Q8531.384615384613 1147 8717.384615384613 1147Q8829.384615384613 1147 8909.384615384613 1098.0Q8989.384615384613 1049 9040.384615384613 950V1120H9206.384615384613ZM12299.846153846152 606V516H11537.846153846152Q11548.846153846152 326 11641.346153846152 226.5Q11733.846153846152 127 11897.846153846152 127Q11993.846153846152 127 12083.346153846152 153.0Q12172.846153846152 179 12260.846153846152 231V57Q12171.846153846152 15 12078.346153846152 -7.0Q11984.846153846152 -29 11888.846153846152 -29Q11646.846153846152 -29 11506.346153846152 127.0Q11365.846153846152 283 11365.846153846152 549Q11365.846153846152 824 11499.346153846152 985.5Q11632.846153846152 1147 11859.846153846152 1147Q12062.846153846152 1147 12181.346153846152 1001.5Q12299.846153846152 856 12299.846153846152 606ZM12133.846153846152 660Q12131.846153846152 811 12057.846153846152 901.0Q11983.846153846152 991 11861.846153846152 991Q11722.846153846152 991 11639.346153846152 904.0Q11555.846153846152 817 11543.846153846152 659ZM14920.307692307691 563Q14719.307692307691 563 14641.807692307691 512.0Q14564.307692307691 461 14564.307692307691 338Q14564.307692307691 240 14622.307692307691 182.5Q14680.307692307691 125 14780.307692307691 125Q14918.307692307691 125 15001.307692307691 233.5Q15084.307692307691 342 15084.307692307691 522V563ZM15250.307692307691 639V0H15084.307692307691V170Q15028.307692307691 68 14943.807692307691 19.5Q14859.307692307691 -29 14736.307692307691 -29Q14581.307692307691 -29 14490.307692307691 67.5Q14399.307692307691 164 14399.307692307691 326Q14399.307692307691 515 14512.807692307691 611.0Q14626.307692307691 707 14852.307692307691 707H15084.307692307691V725Q15084.307692307691 852 15009.307692307691 921.5Q14934.307692307691 991 14798.307692307691 991Q14712.307692307691 991 14630.307692307691 968.0Q14548.307692307691 945 14472.307692307691 899V1069Q14563.307692307691 1108 14648.807692307691 1127.5Q14734.307692307691 1147 14815.307692307691 1147Q15034.307692307691 1147 15142.307692307691 1021.0Q15250.307692307691 895 15250.307692307691 639ZM17464.76923076923 442V1120H17629.76923076923V449Q17629.76923076923 290 17685.76923076923 210.5Q17741.76923076923 131 17852.76923076923 131Q17987.76923076923 131 18065.26923076923 226.0Q18142.76923076923 321 18142.76923076923 485V1120H18308.76923076923V0H18142.76923076923V172Q18082.76923076923 70 18003.26923076923 20.5Q17923.76923076923 -29 17817.76923076923 -29Q17644.76923076923 -29 17554.76923076923 91.0Q17464.76923076923 211 17464.76923076923 442ZM17880.76923076923 1147ZM21203.23076923077 950V1556H21369.23076923077V0H21203.23076923077V168Q21151.23076923077 68 21071.73076923077 19.5Q20992.23076923077 -29 20880.23076923077 -29Q20697.23076923077 -29 20582.73076923077 133.0Q20468.23076923077 295 20468.23076923077 559Q20468.23076923077 823 20582.73076923077 985.0Q20697.23076923077 1147 20880.23076923077 1147Q20992.23076923077 1147 21071.73076923077 1098.5Q21151.23076923077 1050 21203.23076923077 950ZM20639.23076923077 559Q20639.23076923077 356 20714.23076923077 240.5Q20789.23076923077 125 20920.23076923077 125Q21052.23076923077 125 21127.73076923077 240.5Q21203.23076923077 356 21203.23076923077 559Q21203.23076923077 762 21127.73076923077 877.5Q21052.23076923077 993 20920.23076923077 993Q20789.23076923077 993 20714.23076923077 877.5Q20639.23076923077 762 20639.23076923077 559ZM23600.69230769231 1120H23765.69230769231V0H23600.69230769231ZM23600.69230769231 1556H23765.69230769231V1323H23600.69230769231ZM26393.153846153848 991Q26260.153846153848 991 26182.653846153848 875.5Q26105.153846153848 760 26105.153846153848 559Q26105.153846153848 358 26182.153846153848 242.5Q26259.153846153848 127 26393.153846153848 127Q26526.153846153848 127 26603.153846153848 243.0Q26680.153846153848 359 26680.153846153848 559Q26680.153846153848 758 26603.153846153848 874.5Q26526.153846153848 991 26393.153846153848 991ZM26393.153846153848 1147Q26609.153846153848 1147 26732.653846153848 991.0Q26856.153846153848 835 26856.153846153848 559Q26856.153846153848 284 26732.653846153848 127.5Q26609.153846153848 -29 26393.153846153848 -29Q26176.153846153848 -29 26053.653846153848 127.5Q25931.153846153848 284 25931.153846153848 559Q25931.153846153848 835 26053.653846153848 991.0Q26176.153846153848 1147 26393.153846153848 1147Z" fill="#e8612a" opacity="0.4" transform="translate(37.165,126.100) scale(0.000635,-0.000635)"/>
</svg>